<svg
    xmlns="http://www.w3.org/2000/svg"
    viewBox="0 0 48 48"
    id="vector">
    <defs>
        <clipPath id="clip_path_3">
            <path d="M 0 0 L 48 0 L 48 48 L 0 48 Z"/>
        </clipPath>
    </defs>
    <g id="group">
        <path
            id="path_3"
            clip-path="url(#clip_path_3)"
            d="M 24.004 4.786 C 18.911 4.787 14.021 6.812 10.42 10.414 C 6.819 14.016 4.794 18.906 4.794 23.999 C 4.794 29.093 6.82 33.982 10.422 37.584 C 14.023 41.185 18.913 43.21 24.007 43.21 C 29.1 43.21 33.99 41.184 37.591 37.583 C 41.193 33.981 43.218 29.091 43.218 23.998 C 43.217 18.904 41.192 14.014 37.59 10.413 C 33.988 6.811 29.098 4.786 24.004 4.786 Z M 24.004 10.53 C 25.689 10.529 27.307 11.199 28.499 12.39 C 29.691 13.581 30.361 15.199 30.362 16.884 C 30.363 18.569 29.693 20.187 28.502 21.379 C 27.311 22.571 25.693 23.241 24.008 23.242 C 22.323 23.243 20.705 22.573 19.513 21.382 C 18.321 20.191 17.651 18.573 17.65 16.888 C 17.65 15.203 18.32 13.586 19.511 12.394 C 20.702 11.203 22.319 10.533 24.004 10.532 Z M 23.99 38.186 C 20.624 38.19 17.366 36.988 14.808 34.8 C 14.51 34.546 14.271 34.23 14.107 33.875 C 13.943 33.52 13.858 33.133 13.858 32.742 C 13.858 31.614 14.156 30.506 14.722 29.53 C 15.288 28.555 16.102 27.746 17.081 27.186 C 18.06 26.626 19.17 26.335 20.298 26.342 L 27.698 26.342 C 28.825 26.337 29.933 26.629 30.911 27.189 C 31.888 27.75 32.701 28.558 33.266 29.533 C 33.83 30.508 34.128 31.615 34.128 32.742 C 34.128 33.133 34.043 33.52 33.879 33.875 C 33.715 34.231 33.476 34.546 33.178 34.8 C 30.619 36.99 27.358 38.192 23.99 38.186 Z"
            fill="#b1b1b1"/>
    </g>
</svg>
